<?xml version="1.0" encoding="UTF-8"?>
<svg id="Layer_1" data-name="Layer 1" xmlns="http://www.w3.org/2000/svg" xmlns:xlink="http://www.w3.org/1999/xlink" viewBox="0 0 1300 800">
  <defs>
    <style>
      .cls-1 {
        fill: url(#linear-gradient);
      }

      .cls-2 {
        fill: #036;
      }

      .cls-3 {
        fill: #c50;
      }

      .cls-4 {
        fill: #383838;
      }

      .cls-5 {
        fill: url(#linear-gradient-3);
      }

      .cls-6 {
        fill: url(#linear-gradient-2);
      }
    </style>
    <linearGradient id="linear-gradient" x1="574.68" y1="411.14" x2="725.33" y2="411.14" gradientUnits="userSpaceOnUse">
      <stop offset=".16" stop-color="#c50"/>
      <stop offset=".51" stop-color="#fff"/>
      <stop offset=".88" stop-color="#c50"/>
    </linearGradient>
    <linearGradient id="linear-gradient-2" x1="608.22" y1="291.99" x2="648.46" y2="347.4" gradientUnits="userSpaceOnUse">
      <stop offset="0" stop-color="#fff"/>
      <stop offset="1" stop-color="#c50" stop-opacity="0"/>
    </linearGradient>
    <linearGradient id="linear-gradient-3" x1="642.43" y1="316.07" x2="666.57" y2="349.31" xlink:href="#linear-gradient-2"/>
  </defs>
  <g>
    <g>
      <g>
        <path class="cls-4" d="M515.78,453.58c-1.96-3.31-4.63-5.91-8.02-7.8-3.4-1.89-7.2-2.84-11.4-2.84h-24.24v63.08h13.69v-19.73h10.55c4.2,0,8-.93,11.4-2.8,3.39-1.86,6.06-4.44,8.02-7.75,1.95-3.3,2.93-7,2.93-11.08s-.98-7.78-2.93-11.08Zm-13.43,17.57c-1.65,1.68-3.83,2.52-6.53,2.52h-10.01v-18.11h10.01c2.7,0,4.88,.85,6.53,2.57,1.65,1.71,2.48,3.89,2.48,6.53s-.83,4.81-2.48,6.49Z"/>
        <path class="cls-4" d="M527.27,457.36v48.66h13.15v-48.66h-13.15Zm0-18.74v12.25h13.15v-12.25h-13.15Z"/>
        <path class="cls-4" d="M601.79,468.53c-2.22-3.9-5.27-6.96-9.15-9.19-3.87-2.22-8.21-3.33-13.02-3.33-3.06,0-5.92,.49-8.56,1.48-2.64,1-4.99,2.42-7.03,4.29l-2.25-4.42h-8.74v66.23h13.16v-20.18c3.9,2.7,8.38,4.05,13.42,4.05s9.15-1.12,13.02-3.38c3.88-2.25,6.93-5.34,9.15-9.28,2.22-3.93,3.33-8.3,3.33-13.11s-1.11-9.25-3.33-13.16Zm-13.74,22.71c-2.5,2.52-5.67,3.79-9.51,3.79s-7.01-1.27-9.51-3.79c-2.49-2.52-3.74-5.7-3.74-9.55s1.25-7.03,3.74-9.55c2.5-2.53,5.67-3.79,9.51-3.79s7.01,1.26,9.51,3.79c2.49,2.52,3.74,5.71,3.74,9.55s-1.25,7.03-3.74,9.55Z"/>
        <path class="cls-4" d="M661.71,481.51c0-4.63-1.06-8.89-3.19-12.8-2.14-3.9-5.11-6.99-8.93-9.28-3.81-2.28-8.15-3.42-13.02-3.42s-9.04,1.11-12.88,3.33c-3.85,2.23-6.87,5.3-9.06,9.24-2.19,3.93-3.29,8.3-3.29,13.11s1.1,9.16,3.29,13.07c2.19,3.9,5.21,6.98,9.06,9.23,3.84,2.26,8.14,3.38,12.88,3.38,5.59,0,10.56-1.56,14.92-4.68,4.35-3.13,7.43-7.33,9.23-12.62h-13.87c-1.03,1.74-2.44,3.11-4.24,4.1-1.8,.99-3.82,1.49-6.04,1.49-3.24,0-5.9-.89-7.97-2.66-2.07-1.77-3.38-4.31-3.92-7.62h36.76c.18-1.26,.27-2.55,.27-3.87Zm-36.67-5.14c.78-2.88,2.18-5.13,4.19-6.76,2.01-1.62,4.46-2.43,7.34-2.43s5.45,.8,7.53,2.39c2.07,1.59,3.56,3.86,4.46,6.8h-23.52Z"/>
        <path class="cls-4" d="M670.27,474.39v12.71h29.47v-12.71h-29.47Z"/>
        <path class="cls-4" d="M750.29,442.94v38.75c0,3.91-1.15,7.02-3.47,9.33-2.31,2.31-5.3,3.47-8.96,3.47s-6.64-1.16-8.92-3.47c-2.29-2.31-3.43-5.42-3.43-9.33v-38.75h-13.7v39.38c0,4.87,1.13,9.19,3.38,12.98,2.26,3.78,5.37,6.74,9.33,8.87,3.97,2.14,8.41,3.2,13.34,3.2s9.37-1.06,13.33-3.2c3.97-2.13,7.08-5.09,9.33-8.87,2.25-3.79,3.38-8.11,3.38-12.98v-39.38h-13.61Z"/>
        <path class="cls-4" d="M824.55,468.53c-2.23-3.9-5.27-6.96-9.15-9.19-3.87-2.22-8.21-3.33-13.02-3.33-3.06,0-5.92,.49-8.56,1.48-2.64,1-4.99,2.42-7.03,4.29l-2.25-4.42h-8.74v66.23h13.15v-20.18c3.91,2.7,8.38,4.05,13.43,4.05s9.15-1.12,13.02-3.38c3.88-2.25,6.92-5.34,9.15-9.28,2.22-3.93,3.33-8.3,3.33-13.11s-1.11-9.25-3.33-13.16Zm-13.74,22.71c-2.5,2.52-5.67,3.79-9.51,3.79s-7.02-1.27-9.51-3.79c-2.49-2.52-3.74-5.7-3.74-9.55s1.25-7.03,3.74-9.55c2.49-2.53,5.66-3.79,9.51-3.79s7.01,1.26,9.51,3.79c2.49,2.52,3.74,5.71,3.74,9.55s-1.25,7.03-3.74,9.55Z"/>
      </g>
      <g>
        <path class="cls-3" d="M649.99,254.51c-50.72,0-92,41.27-92,92,0,19.62,6.17,37.83,16.69,52.77,3.98-5.68,8.59-10.88,13.73-15.51-6.61-10.88-10.42-23.63-10.42-37.26,0-39.7,32.3-72,72-72s72.02,32.3,72.02,72c0,13.63-3.8,26.38-10.41,37.26,5.13,4.63,9.75,9.83,13.73,15.51,10.51-14.94,16.68-33.15,16.68-52.77,0-50.73-41.29-92-92.02-92Z"/>
        <path class="cls-1" d="M725.33,399.28c-3.98,5.67-8.59,10.87-13.73,15.5-16.32,14.74-37.94,23.73-61.6,23.73s-45.27-8.99-61.59-23.73c-5.14-4.63-9.75-9.83-13.72-15.5,3.97-5.68,8.58-10.88,13.72-15.51,3.48,5.74,7.75,10.96,12.65,15.51,12.85,11.93,30.06,19.23,48.94,19.23s36.1-7.3,48.95-19.23c4.9-4.55,9.16-9.77,12.65-15.51,5.14,4.63,9.75,9.83,13.73,15.51Z"/>
        <g>
          <path class="cls-2" d="M649.11,438.61c-25.09-.48-44.95-21.5-44.95-46.59v-58.44h0c11.1,0,20.09,8.99,20.09,20.09v38.58c0,14.01,10.96,25.87,24.97,26.28,14.55,.43,26.52-11.28,26.52-25.73v-29.88c0-11.1,8.99-20.09,20.09-20.09h0v49.97c0,25.57-21.04,46.31-46.72,45.83Z"/>
          <path class="cls-3" d="M678.56,349.75c-.54,3.07-1.81,5.47-3.52,7.25-8.03,8.42-25.83,3.08-23.73-11.45,.38-2.58,1.2-5.18,2.59-7.75-.5,.35-16.87,12.13-15.96,40.75,0,0,0-.01-.01-.01-.39-.24-11.59-7.45-13.68-24.29-.17-1.31-.27-2.67-.31-4.09-.02-.48-.03-.96-.03-1.45,0-21.13,23.51-31.55,17.02-59.67,0,0,23.47,11.64,33.62,32.11,4.57,9.23,5.63,19.45,4.01,28.6Z"/>
          <path class="cls-3" d="M666.39,371.27c-9.22,13.84-6.08,29.71-6.08,29.71,0,0-14.86-17.22-11.99-34.61,0,0,8.71,7.09,18.06,4.9Z"/>
        </g>
      </g>
    </g>
    <path class="cls-6" d="M637.93,378.54c-.43-.26-14.02-9.02-14.02-29.83s23.51-31.55,17.02-59.67c24.19,26.77-24.28,53.43-3,89.5Z"/>
    <path class="cls-5" d="M675.04,357c-8.03,8.42-25.83,3.08-23.73-11.45,.38-2.58,1.2-5.18,2.59-7.75,6.92-8.46,4.45-20.81,4.45-20.81,0,0,11.85,5.12,8.04,20.12-3.8,14.99,.3,23.51,8.65,19.89Z"/>
  </g>
  <g>
    <path class="cls-2" d="M553.04,540c0-3.19,2.44-5.49,5.72-5.49,1.74,0,3.23,.62,4.22,1.78l-1.28,1.2c-.78-.84-1.74-1.25-2.85-1.25-2.21,0-3.81,1.56-3.81,3.75s1.6,3.75,3.81,3.75c1.11,0,2.07-.41,2.85-1.27l1.28,1.22c-.99,1.16-2.49,1.78-4.24,1.78-3.26,0-5.7-2.3-5.7-5.49Z"/>
    <path class="cls-2" d="M563.9,540c0-3.16,2.44-5.49,5.75-5.49s5.75,2.32,5.75,5.49-2.44,5.49-5.75,5.49-5.75-2.33-5.75-5.49Zm9.5,0c0-2.18-1.6-3.75-3.75-3.75s-3.75,1.57-3.75,3.75,1.6,3.75,3.75,3.75,3.75-1.57,3.75-3.75Z"/>
    <path class="cls-2" d="M586.99,534.66v10.67h-1.63l-5.89-7.23v7.23h-1.97v-10.67h1.63l5.89,7.23v-7.23h1.97Z"/>
    <path class="cls-2" d="M599.35,534.66v10.67h-1.63l-5.89-7.23v7.23h-1.97v-10.67h1.63l5.89,7.23v-7.23h1.97Z"/>
    <path class="cls-2" d="M610.22,543.67v1.66h-8.01v-10.67h7.79v1.66h-5.81v2.78h5.15v1.63h-5.15v2.94h6.02Z"/>
    <path class="cls-2" d="M611.63,540c0-3.19,2.44-5.49,5.72-5.49,1.74,0,3.23,.62,4.22,1.78l-1.28,1.2c-.78-.84-1.74-1.25-2.85-1.25-2.21,0-3.81,1.56-3.81,3.75s1.6,3.75,3.81,3.75c1.11,0,2.07-.41,2.85-1.27l1.28,1.22c-.99,1.16-2.49,1.78-4.24,1.78-3.26,0-5.7-2.3-5.7-5.49Z"/>
    <path class="cls-2" d="M625.53,536.34h-3.54v-1.68h9.06v1.68h-3.54v9h-1.98v-9Z"/>
    <path class="cls-2" d="M631.23,544.18c0-.76,.56-1.27,1.25-1.27s1.25,.5,1.25,1.27-.56,1.27-1.25,1.27-1.25-.53-1.25-1.27Z"/>
    <path class="cls-2" d="M639.99,534.66h1.98v9h5.58v1.68h-7.56v-10.67Z"/>
    <path class="cls-2" d="M657.13,543.67v1.66h-8.01v-10.67h7.79v1.66h-5.81v2.78h5.15v1.63h-5.15v2.94h6.02Z"/>
    <path class="cls-2" d="M666.27,542.87h-5.34l-1.05,2.47h-2.04l4.8-10.67h1.95l4.82,10.67h-2.07l-1.07-2.47Zm-.66-1.56l-2.01-4.67-2,4.67h4.01Z"/>
    <path class="cls-2" d="M677.75,545.33l-2.18-3.13c-.14,.02-.27,.02-.41,.02h-2.41v3.11h-1.98v-10.67h4.39c2.81,0,4.54,1.43,4.54,3.8,0,1.62-.82,2.81-2.27,3.37l2.46,3.51h-2.13Zm-2.68-9h-2.32v4.25h2.32c1.74,0,2.64-.79,2.64-2.14s-.9-2.12-2.64-2.12Z"/>
    <path class="cls-2" d="M691.4,534.66v10.67h-1.63l-5.89-7.23v7.23h-1.97v-10.67h1.63l5.89,7.23v-7.23h1.97Z"/>
    <path class="cls-2" d="M693.45,544.18c0-.76,.56-1.27,1.25-1.27s1.25,.5,1.25,1.27-.56,1.27-1.25,1.27-1.25-.53-1.25-1.27Z"/>
    <path class="cls-2" d="M702.21,534.66h1.98v9h5.58v1.68h-7.56v-10.67Z"/>
    <path class="cls-2" d="M719.35,543.67v1.66h-8.01v-10.67h7.79v1.66h-5.81v2.78h5.15v1.63h-5.15v2.94h6.02Z"/>
    <path class="cls-2" d="M728.49,542.87h-5.34l-1.05,2.47h-2.04l4.8-10.67h1.95l4.82,10.67h-2.07l-1.07-2.47Zm-.66-1.56l-2.01-4.67-2,4.67h4.01Z"/>
    <path class="cls-2" d="M732.99,534.66h4.67c3.46,0,5.83,2.14,5.83,5.34s-2.36,5.34-5.83,5.34h-4.67v-10.67Zm4.58,9c2.38,0,3.92-1.45,3.92-3.66s-1.54-3.66-3.92-3.66h-2.59v7.32h2.59Z"/>
    <path class="cls-2" d="M744.46,544.18c0-.76,.56-1.27,1.25-1.27s1.25,.5,1.25,1.27-.56,1.27-1.25,1.27-1.25-.53-1.25-1.27Z"/>
  </g>
</svg>